<svg xmlns="http://www.w3.org/2000/svg" viewBox="0 0 512 512">
  <rect width="512" height="512" rx="112" fill="#fff2b7"/>
  <path fill="#a46a36" d="M58 86h396v340H58z"/>
  <path fill="#fffdf0" d="M92 120h328v272H92z"/>
  <path fill="#e94945" d="M137 178c-34 6-54 35-45 67 8 31 47 47 79 38 32-8 49-43 36-71-11-25-40-39-70-34z"/>
  <path fill="#2588f3" d="M333 155c-29 1-54 24-54 54 0 35 35 62 71 52 33-9 51-43 39-72-8-21-29-35-56-34z"/>
  <path fill="#39b85a" d="M177 303c-27-3-52 16-56 43-5 31 22 57 54 58 33 1 61-27 54-58-5-24-25-40-52-43z"/>
  <path fill="#f4c72f" d="M345 301c-37-8-70 16-69 50 2 32 36 54 72 45 32-8 50-40 38-67-7-15-21-24-41-28z"/>
  <circle cx="151" cy="211" r="10" fill="#301b23"/>
  <circle cx="343" cy="195" r="9" fill="#301b23"/>
  <circle cx="174" cy="340" r="9" fill="#301b23"/>
  <circle cx="351" cy="337" r="9" fill="#301b23"/>
</svg>
